<svg preserveAspectRatio="none" overflow="visible" style="display: block;" width="1100" height="294.498" viewBox="0 0 1100 294.498" fill="none" xmlns="http://www.w3.org/2000/svg">
<g id="Frame 394">
<path id="Union" d="M555.266 59.6264C565.026 18.7417 609.103 9.52312 645.04 18.8833C649.184 19.9621 652.882 21.6232 656.657 23.6342C652.271 36.1478 646.81 50.6764 642.886 63.187C632.029 57.6133 616.576 54.8007 609.792 67.9399C607.472 72.4239 607.307 78.2803 607.18 83.2827C618.125 83.237 634.895 83.7377 645.498 83.1362C645.443 90.1547 645.514 97.5841 645.332 104.567C665.062 84.1117 686.004 75.391 714.832 74.6655C747.771 73.8365 780.992 87.5146 797.404 117.285C799.999 121.992 802.022 127.088 804.033 132.15C803.311 94.7139 803.852 55.7229 803.868 18.1713L859.894 18.1176C859.392 27.3689 859.624 38.2322 859.629 47.602L859.656 96.0424L859.646 237.159C841.261 237.159 822.209 236.889 803.885 237.175L803.902 181.06C801.956 186.729 800.231 191.372 797.393 196.639C765.616 255.637 663.684 253.86 634.751 192.955C625.432 173.333 624.204 149.725 631.346 129.169C631.836 127.771 632.343 126.379 632.866 124.994C624.931 124.984 616.658 124.86 608.75 125.011C608.756 161.526 607.968 200.938 608.783 237.19L575.177 237.191C568.426 237.214 560.099 237.466 553.475 236.955C552.152 234.554 553.822 233.192 552.472 232.014C547.799 233.729 542.436 235.898 537.686 236.993C507.318 243.991 466.618 238.883 454.801 205.198C449.06 188.83 450.694 172.999 450.484 156.011C450.415 145.837 450.411 135.128 450.539 124.956C438.334 124.868 425.108 123.348 414.246 129.701C395.1 140.899 398.537 168.432 398.542 187.459L398.573 235.362C398.57 235.976 398.583 236.59 398.61 237.204L342.786 237.183C342.773 218.834 342.41 199.002 343.02 180.775C339.763 189.51 336.883 196.793 331.395 204.508C298.001 251.456 214.425 251.496 180.81 204.813C177.857 200.712 175.238 196.166 172.786 191.734C163.646 211.771 150.282 227.305 129.17 234.706C103.197 243.813 76.4881 241.456 55.9435 222.815C55.8256 238.245 55.7947 253.674 55.8498 269.104C55.8553 276.974 55.5927 286.753 55.9123 294.492C37.971 294.438 17.8381 293.972 0.000183105 294.498C1.08045 256.431 0.149311 213.907 0.139832 175.46L0.125183 110.851C0.123041 100.325 0.447976 87.5956 0.053894 77.2241C15.9981 77.24 37.8221 76.5914 53.2355 77.4848C53.2697 80.0232 53.1764 84.3664 53.7385 86.686C57.4303 85.2903 58.4789 85.091 62.0109 83.81C63.6093 83.2303 65.154 82.3838 67.1105 81.5805C86.8913 73.4597 109.068 73.411 128.884 81.4448C130.282 81.9736 131.842 82.5237 133.199 83.1186C152.835 91.5468 164.258 103.508 172.663 122.683C180.39 107.959 186.615 99.8733 201.107 90.5307C243.097 63.4597 311.698 72.2145 336.782 118.38C339.121 122.686 341.105 127.741 342.98 132.324C342.671 114.978 343.81 94.137 342.954 77.5737C360.602 77.3401 378.25 77.2804 395.899 77.395C395.769 83.7447 395.597 89.967 395.828 96.3217C399.39 93.2441 401.766 90.3988 405.638 87.5415C419.422 77.3681 433.796 74.7809 450.452 75.1577C450.643 64.2181 450.676 53.2761 450.552 42.3354L506.362 41.559C506.354 55.3532 506.205 69.4684 506.364 83.2417C521.52 83.1656 537.999 83.4777 553.017 83.1401C553.083 74.4156 553.216 68.2127 555.266 59.6264ZM1008.35 74.6743C1045.6 73.5588 1083.56 92.7608 1095.72 129.697C1102.52 150.335 1101.27 174.421 1091.61 194.114C1069.25 239.691 1006.75 250.514 964.002 229.313C942.542 218.646 930.059 202.462 922.559 179.865L922.653 194.936C922.619 207.955 922.168 224.406 922.736 237.129L866.733 237.163L866.71 77.2309L922.696 77.1596C922.399 96.1578 922.928 115.3 922.504 134.317C934.314 97.3011 963.892 77.3072 1002.19 74.9467C1004.28 74.6956 1006.27 74.7365 1008.35 74.6743ZM553.122 124.935C538.733 124.943 520.373 125.507 506.33 124.935L506.246 161.144C506.229 174.246 503.482 196.245 522.919 196.689C528.874 196.825 535.283 194.523 540.369 191.494C544.012 202.014 548.09 212.819 551.568 223.329L552.493 224.855C553.634 223.644 552.725 135.436 553.122 124.935ZM289.557 153.181C288.016 129.98 273.176 117.329 250.223 119.426C243.871 120.719 239.012 122.505 234.024 126.771C216.781 141.515 217.928 177.93 237.624 190.215C245.592 195.185 253.56 195.972 262.574 194.732C283.236 189.95 290.856 172.751 289.557 153.181ZM749.596 145.457C745.54 126.263 729.916 117.449 711.3 119.441C702.692 121.204 693.874 125.493 689.421 133.317C673.908 160.553 687.04 200.495 723.898 194.67C747.303 189.51 753.994 166.266 749.596 145.457ZM1042.33 145.067C1038.08 125.871 1022.73 117.713 1004.21 119.42C981.417 124.256 974.021 142.549 976.441 164.066C978.866 185.676 995.426 198.134 1016.98 194.608C1040.36 189.233 1046.94 165.885 1042.33 145.067ZM95.7043 194.638C135.954 185.95 131.036 113.364 83.1486 119.439C58.8023 124.556 51.957 146.277 56.0978 168.187C59.826 187.915 76.656 197.671 95.7043 194.638ZM892.865 0.0316895C919.792 -0.94477 939.291 20.7782 922.989 46.7192C917.842 54.9165 907.001 57.9496 897.737 59.2309C887.685 59.6991 878.145 57.8827 870.353 51.0668C864.616 46.1197 861.123 39.0654 860.665 31.5053C859.365 11.9099 874.844 1.10163 892.865 0.0316895Z" fill="black"/>
</g>
</svg>
